<?xml version="1.0" encoding="UTF-8" standalone="no"?>
<!DOCTYPE svg PUBLIC "-//W3C//DTD SVG 1.1//EN" "http://www.w3.org/Graphics/SVG/1.1/DTD/svg11.dtd">
<svg width="100%" height="100%" viewBox="0 0 71 156" version="1.1" xmlns="http://www.w3.org/2000/svg" xmlns:xlink="http://www.w3.org/1999/xlink" xml:space="preserve" xmlns:serif="http://www.serif.com/" style="fill-rule:evenodd;clip-rule:evenodd;stroke-miterlimit:10;">
    <rect x="-8.5" y="-8.5" width="80.08" height="172.91" style="fill:rgb(0,168,129);"/>
    <g>
        <g>
            <path d="M41.16,142.12L30.41,142.12L30.26,141.96C27.33,138.96 25.57,133.83 25.57,128.25C25.57,124.31 26.49,120.45 28.16,117.39C29.01,115.83 29.24,113.59 29.28,111.99C29.37,108.54 32.32,105.7 35.86,105.67C39.4,105.64 35.91,105.67 35.93,105.67C38.06,105.67 39.57,106.72 40.47,107.6C41.72,108.83 42.54,110.51 42.55,111.87C42.56,114.06 42.95,116 43.69,117.65C45.2,120.99 46,124.66 46,128.26C46,133.84 44.25,138.97 41.31,141.97L41.16,142.13L41.16,142.12ZM30.86,141.07L40.72,141.07C43.38,138.24 44.96,133.47 44.96,128.25C44.96,124.8 44.19,121.28 42.74,118.08C41.93,116.3 41.52,114.21 41.5,111.87C41.5,110.97 40.95,109.53 39.74,108.34C38.97,107.59 37.68,106.72 35.88,106.71C32.95,106.74 30.41,109.17 30.34,112.01C30.3,113.73 30.04,116.15 29.1,117.89C27.51,120.8 26.64,124.48 26.64,128.25C26.64,133.47 28.22,138.24 30.88,141.07L30.86,141.07Z" style="fill:white;fill-rule:nonzero;"/>
            <path d="M35.86,106.18C39.61,106.14 42,109.75 42.02,111.86C42.03,113.9 42.37,115.99 43.21,117.85C44.51,120.72 45.47,124.26 45.47,128.24C45.47,133.86 43.66,138.8 40.93,141.59L30.63,141.59C27.9,138.8 26.09,133.87 26.09,128.24C26.09,124.15 27.08,120.45 28.62,117.63C29.49,116.04 29.75,113.79 29.8,111.99C29.88,108.75 32.72,106.21 35.86,106.18" style="fill:rgb(0,168,129);"/>
            <path d="M45.03,123.59C45.12,124.06 45.2,124.54 45.26,125.02L26.3,125.02C26.37,124.51 26.45,124.02 26.54,123.53L26.7,123.53L26.7,123.57C26.7,124.05 27.09,124.43 27.56,124.43C28.03,124.43 28.42,124.04 28.42,123.57L28.42,123.53L28.54,123.53L28.54,123.57C28.54,124.05 28.93,124.43 29.4,124.43C29.87,124.43 30.26,124.04 30.26,123.57L30.26,123.53L30.39,123.53L30.39,123.57C30.39,124.05 30.78,124.43 31.25,124.43C31.72,124.43 32.11,124.04 32.11,123.57L32.11,123.53L32.24,123.53L32.24,123.57C32.24,124.05 32.63,124.43 33.1,124.43C33.57,124.43 33.96,124.04 33.96,123.57L33.96,123.53L34.09,123.53L34.09,123.57C34.09,124.05 34.48,124.43 34.95,124.43C35.42,124.43 35.81,124.04 35.81,123.57L35.81,123.53L35.93,123.53L35.93,123.57C35.93,124.05 36.32,124.43 36.79,124.43C37.26,124.43 37.65,124.04 37.65,123.57L37.65,123.53L37.78,123.53L37.78,123.57C37.78,124.05 38.17,124.43 38.64,124.43C39.11,124.43 39.5,124.04 39.5,123.57L39.5,123.53L39.63,123.53L39.63,123.57C39.63,124.05 40.02,124.43 40.49,124.43C40.96,124.43 41.35,124.04 41.35,123.57L41.35,123.53L41.48,123.53L41.48,123.57C41.48,124.05 41.87,124.43 42.34,124.43C42.81,124.43 43.2,124.04 43.2,123.57L43.2,123.53L43.32,123.53L43.32,123.57C43.32,124.05 43.71,124.43 44.18,124.43C44.65,124.43 45.03,124.05 45.04,123.58" style="fill:white;"/>
            <path d="M30.04,122.93L26.67,122.93C27.02,121.38 27.5,119.95 28.1,118.66L30.04,118.66L30.04,122.93ZM31.57,122.93L30.53,122.93L30.53,118.66L31.57,118.66L31.57,122.93ZM39.94,122.93L32.06,122.93L32.06,118.66L35.69,118.66C35.69,118.66 34.74,119.24 34.61,119.84C34.38,120.83 34.66,121.29 35.01,121.86C35.01,121.86 36.9,121.09 37.37,120.27C37.87,120.93 38.67,121.22 39.01,121.17C39.39,119.63 38.83,119.28 38.5,118.65L39.93,118.65L39.93,122.92L39.94,122.93ZM41.47,122.93L40.42,122.93L40.42,118.66L41.47,118.66L41.47,122.93ZM43.56,118.67C44.1,119.97 44.56,121.4 44.9,122.94L41.97,122.94L41.97,118.67L43.57,118.67L43.56,118.67Z" style="fill:white;"/>
            <path d="M36.01,107.88C38.41,107.88 40.36,109.83 40.36,112.23C40.36,114.63 38.41,116.58 36.01,116.58C33.61,116.58 31.66,114.63 31.66,112.23C31.66,109.83 33.61,107.88 36.01,107.88" style="fill:white;"/>
            <path d="M36.01,107.88C38.11,107.88 39.87,109.37 40.27,111.36C39.98,111.44 39.68,111.48 39.36,111.48C37.85,111.48 36.56,110.51 36.09,109.16C35.62,110.51 34.33,111.48 32.82,111.48C32.45,111.48 32.09,111.42 31.75,111.31C32.17,109.35 33.91,107.88 36,107.88L36.01,107.88Z" style="fill:rgb(0,168,129);"/>
            <path d="M36.01,107.88C38.11,107.88 39.87,109.37 40.27,111.36C39.98,111.44 39.68,111.48 39.36,111.48C37.85,111.48 36.56,110.51 36.09,109.16C35.62,110.51 34.33,111.48 32.82,111.48C32.45,111.48 32.09,111.42 31.75,111.31C32.17,109.35 33.91,107.88 36,107.88L36.01,107.88Z" style="fill:none;fill-rule:nonzero;"/>
            <path d="M33.18,113.67C33.45,113.67 33.67,113.89 33.67,114.16C33.67,114.43 33.45,114.65 33.18,114.65C32.91,114.65 32.69,114.43 32.69,114.16C32.69,113.89 32.91,113.67 33.18,113.67" style="fill:rgb(0,168,129);"/>
            <path d="M38.51,113.67C38.78,113.67 39,113.89 39,114.16C39,114.43 38.78,114.65 38.51,114.65C38.24,114.65 38.02,114.43 38.02,114.16C38.02,113.89 38.24,113.67 38.51,113.67" style="fill:rgb(0,168,129);"/>
            <path d="M34.2,111.66C34.5,111.76 34.72,112.05 34.72,112.38C34.72,112.8 34.38,113.14 33.96,113.14C33.54,113.14 33.2,112.8 33.2,112.38L33.2,112.3L32.49,112.47L32.11,112.07L32.78,112.02C32.78,112.02 33.34,111.51 33.67,111.5C34,111.5 34.19,111.66 34.19,111.66L34.2,111.66Z" style="fill:rgb(0,168,129);"/>
            <path d="M37.9,111.66C37.6,111.76 37.38,112.05 37.38,112.38C37.38,112.8 37.72,113.14 38.14,113.14C38.56,113.14 38.9,112.8 38.9,112.38L38.9,112.3L39.61,112.47L39.99,112.07L39.31,112.02C39.31,112.02 38.75,111.51 38.42,111.5C38.09,111.5 37.9,111.66 37.9,111.66Z" style="fill:rgb(0,168,129);"/>
            <path d="M36.9,115.17C36.8,115.52 36.42,115.78 35.97,115.78C35.52,115.78 35.15,115.52 35.04,115.17L36.9,115.17Z" style="fill:rgb(0,168,129);"/>
            <path d="M31.17,116.35C31.42,116.35 31.63,116.55 31.63,116.81C31.63,117.07 31.43,117.27 31.17,117.27C30.91,117.27 30.71,117.07 30.71,116.81C30.71,116.55 30.91,116.35 31.17,116.35M31.37,116.02C31.44,116.02 31.5,116.08 31.5,116.15C31.5,116.22 31.44,116.28 31.37,116.28C31.3,116.28 31.24,116.22 31.24,116.15C31.24,116.08 31.3,116.02 31.37,116.02ZM31.73,116.21C31.8,116.21 31.86,116.27 31.86,116.34C31.86,116.41 31.8,116.47 31.73,116.47C31.66,116.47 31.6,116.41 31.6,116.34C31.6,116.27 31.66,116.21 31.73,116.21ZM31.87,116.65C31.94,116.65 32,116.71 32,116.78C32,116.85 31.94,116.91 31.87,116.91C31.8,116.91 31.74,116.85 31.74,116.78C31.74,116.71 31.8,116.65 31.87,116.65ZM31.73,117.12C31.8,117.12 31.86,117.18 31.86,117.25C31.86,117.32 31.8,117.38 31.73,117.38C31.66,117.38 31.6,117.32 31.6,117.25C31.6,117.18 31.66,117.12 31.73,117.12ZM31.4,117.34C31.47,117.34 31.53,117.4 31.53,117.47C31.53,117.54 31.47,117.6 31.4,117.6C31.33,117.6 31.27,117.54 31.27,117.47C31.27,117.4 31.33,117.34 31.4,117.34ZM31.01,117.32C31.08,117.32 31.14,117.38 31.14,117.45C31.14,117.52 31.08,117.58 31.01,117.58C30.94,117.58 30.88,117.52 30.88,117.45C30.88,117.38 30.94,117.32 31.01,117.32ZM30.67,117.15C30.74,117.15 30.8,117.21 30.8,117.28C30.8,117.35 30.74,117.41 30.67,117.41C30.6,117.41 30.54,117.35 30.54,117.28C30.54,117.21 30.6,117.15 30.67,117.15ZM30.48,116.75C30.55,116.75 30.61,116.81 30.61,116.88C30.61,116.95 30.55,117.01 30.48,117.01C30.41,117.01 30.35,116.95 30.35,116.88C30.35,116.81 30.41,116.75 30.48,116.75ZM30.55,116.34C30.62,116.34 30.68,116.4 30.68,116.47C30.68,116.54 30.62,116.6 30.55,116.6C30.48,116.6 30.42,116.54 30.42,116.47C30.42,116.4 30.48,116.34 30.55,116.34ZM30.89,116.01C30.96,116.01 31.02,116.07 31.02,116.14C31.02,116.21 30.96,116.27 30.89,116.27C30.82,116.27 30.76,116.21 30.76,116.14C30.76,116.07 30.82,116.01 30.89,116.01ZM30.69,115.62C30.9,115.62 31.07,115.79 31.07,116L31.07,116.04L31.09,116.04C31.12,115.83 31.3,115.66 31.52,115.66C31.76,115.66 31.95,115.85 31.95,116.09C31.95,116.14 31.95,116.18 31.93,116.22L31.99,116.22C32.23,116.22 32.42,116.41 32.42,116.65C32.42,116.8 32.34,116.93 32.23,117.01C32.31,117.09 32.37,117.2 32.37,117.33C32.37,117.58 32.17,117.77 31.93,117.77C31.84,117.77 31.75,117.74 31.68,117.69C31.65,117.85 31.5,117.98 31.33,117.98C31.16,117.98 31.02,117.86 30.98,117.7C30.89,117.79 30.77,117.84 30.63,117.84C30.36,117.84 30.14,117.62 30.14,117.35C30.14,117.29 30.15,117.24 30.17,117.19C29.97,117.13 29.83,116.94 29.83,116.72C29.83,116.45 30.05,116.23 30.32,116.23L30.4,116.23C30.35,116.16 30.32,116.08 30.32,115.99C30.32,115.78 30.49,115.61 30.7,115.61L30.69,115.62Z" style="fill:white;"/>
            <path d="M40.67,116.35C40.42,116.35 40.21,116.55 40.21,116.81C40.21,117.07 40.41,117.27 40.67,117.27C40.93,117.27 41.13,117.07 41.13,116.81C41.13,116.55 40.93,116.35 40.67,116.35M40.46,116.02C40.39,116.02 40.33,116.08 40.33,116.15C40.33,116.22 40.39,116.28 40.46,116.28C40.53,116.28 40.59,116.22 40.59,116.15C40.59,116.08 40.53,116.02 40.46,116.02ZM40.1,116.21C40.03,116.21 39.97,116.27 39.97,116.34C39.97,116.41 40.03,116.47 40.1,116.47C40.17,116.47 40.23,116.41 40.23,116.34C40.23,116.27 40.17,116.21 40.1,116.21ZM39.96,116.65C39.89,116.65 39.83,116.71 39.83,116.78C39.83,116.85 39.89,116.91 39.96,116.91C40.03,116.91 40.09,116.85 40.09,116.78C40.09,116.71 40.03,116.65 39.96,116.65ZM40.11,117.12C40.04,117.12 39.98,117.18 39.98,117.25C39.98,117.32 40.04,117.38 40.11,117.38C40.18,117.38 40.24,117.32 40.24,117.25C40.24,117.18 40.18,117.12 40.11,117.12ZM40.44,117.34C40.37,117.34 40.31,117.4 40.31,117.47C40.31,117.54 40.37,117.6 40.44,117.6C40.51,117.6 40.57,117.54 40.57,117.47C40.57,117.4 40.51,117.34 40.44,117.34ZM40.83,117.32C40.76,117.32 40.7,117.38 40.7,117.45C40.7,117.52 40.76,117.58 40.83,117.58C40.9,117.58 40.96,117.52 40.96,117.45C40.96,117.38 40.9,117.32 40.83,117.32ZM41.17,117.15C41.1,117.15 41.04,117.21 41.04,117.28C41.04,117.35 41.1,117.41 41.17,117.41C41.24,117.41 41.3,117.35 41.3,117.28C41.3,117.21 41.24,117.15 41.17,117.15ZM41.36,116.75C41.29,116.75 41.23,116.81 41.23,116.88C41.23,116.95 41.29,117.01 41.36,117.01C41.43,117.01 41.49,116.95 41.49,116.88C41.49,116.81 41.43,116.75 41.36,116.75ZM41.29,116.34C41.22,116.34 41.16,116.4 41.16,116.47C41.16,116.54 41.22,116.6 41.29,116.6C41.36,116.6 41.42,116.54 41.42,116.47C41.42,116.4 41.36,116.34 41.29,116.34ZM40.95,116.01C40.88,116.01 40.82,116.07 40.82,116.14C40.82,116.21 40.88,116.27 40.95,116.27C41.02,116.27 41.08,116.21 41.08,116.14C41.08,116.07 41.02,116.01 40.95,116.01ZM41.14,115.62C40.93,115.62 40.76,115.79 40.76,116L40.76,116.04L40.74,116.04C40.71,115.83 40.53,115.66 40.31,115.66C40.07,115.66 39.88,115.85 39.88,116.09C39.88,116.14 39.88,116.18 39.9,116.22L39.84,116.22C39.6,116.22 39.41,116.41 39.41,116.65C39.41,116.8 39.49,116.93 39.6,117.01C39.52,117.09 39.46,117.2 39.46,117.33C39.46,117.58 39.66,117.77 39.9,117.77C39.99,117.77 40.08,117.74 40.15,117.69C40.18,117.85 40.33,117.98 40.5,117.98C40.67,117.98 40.81,117.86 40.85,117.7C40.94,117.79 41.06,117.84 41.2,117.84C41.47,117.84 41.69,117.62 41.69,117.35C41.69,117.29 41.68,117.24 41.66,117.19C41.86,117.13 42,116.94 42,116.72C42,116.45 41.78,116.23 41.51,116.23L41.43,116.23C41.48,116.16 41.51,116.08 41.51,115.99C41.51,115.78 41.34,115.61 41.13,115.61L41.14,115.62Z" style="fill:white;"/>
            <path d="M28.33,126.42C28.94,126.42 29.43,126.91 29.43,127.52C29.43,128.13 28.94,128.62 28.33,128.62C27.72,128.62 27.23,128.13 27.23,127.52C27.23,126.91 27.72,126.42 28.33,126.42" style="fill:white;"/>
            <path d="M33.31,127.37C33.92,127.37 34.41,127.86 34.41,128.47C34.41,129.08 33.92,129.57 33.31,129.57C32.7,129.57 32.21,129.08 32.21,128.47C32.21,127.86 32.7,127.37 33.31,127.37" style="fill:white;"/>
            <path d="M37.98,126.42C38.59,126.42 39.08,126.91 39.08,127.52C39.08,128.13 38.59,128.62 37.98,128.62C37.37,128.62 36.88,128.13 36.88,127.52C36.88,126.91 37.37,126.42 37.98,126.42" style="fill:white;"/>
            <path d="M42.8,126.07C43.41,126.07 43.9,126.56 43.9,127.17C43.9,127.78 43.41,128.27 42.8,128.27C42.19,128.27 41.7,127.78 41.7,127.17C41.7,126.56 42.19,126.07 42.8,126.07" style="fill:white;"/>
            <path d="M44.01,129.55C44.62,129.55 45.11,130.04 45.11,130.65C45.11,131.26 44.62,131.75 44.01,131.75C43.4,131.75 42.91,131.26 42.91,130.65C42.91,130.04 43.4,129.55 44.01,129.55" style="fill:white;"/>
            <path d="M40.04,130.89C40.65,130.89 41.14,131.38 41.14,131.99C41.14,132.6 40.65,133.09 40.04,133.09C39.43,133.09 38.94,132.6 38.94,131.99C38.94,131.38 39.43,130.89 40.04,130.89" style="fill:white;"/>
            <path d="M35.56,132.9C36.17,132.9 36.66,133.39 36.66,134C36.66,134.61 36.17,135.1 35.56,135.1C34.95,135.1 34.46,134.61 34.46,134C34.46,133.39 34.95,132.9 35.56,132.9" style="fill:white;"/>
            <path d="M30.51,131.07C31.12,131.07 31.61,131.56 31.61,132.17C31.61,132.78 31.12,133.27 30.51,133.27C29.9,133.27 29.41,132.78 29.41,132.17C29.41,131.56 29.9,131.07 30.51,131.07" style="fill:white;"/>
            <path d="M30.62,135.54C31.23,135.54 31.72,136.03 31.72,136.64C31.72,137.25 31.23,137.74 30.62,137.74C30.01,137.74 29.52,137.25 29.52,136.64C29.52,136.03 30.01,135.54 30.62,135.54" style="fill:white;"/>
            <path d="M41.75,135.78C42.36,135.78 42.85,136.27 42.85,136.88C42.85,137.49 42.36,137.98 41.75,137.98C41.14,137.98 40.65,137.49 40.65,136.88C40.65,136.27 41.14,135.78 41.75,135.78" style="fill:white;"/>
        </g>
        <g>
            <g>
                <path d="M42.51,93.04L42.51,64.51L42.17,64.51L42.17,62.26L42.2,62.26C42.24,62.17 42.31,62.1 42.41,62.07C40.66,60.46 38.38,59.49 35.88,59.49C33.38,59.49 31.1,60.46 29.35,62.07C29.44,62.1 29.52,62.17 29.56,62.26L29.59,62.26L29.59,64.51L29.25,64.51L29.25,93.04L28.61,93.04L28.61,96.41L42.97,96.41L42.97,93.04L42.51,93.04Z" style="fill:white;fill-rule:nonzero;"/>
                <path d="M42.96,96.9L28.6,96.9C28.33,96.9 28.11,96.68 28.11,96.41L28.11,93.04C28.11,92.77 28.33,92.55 28.6,92.55L28.75,92.55L28.75,64.51C28.75,64.29 28.89,64.11 29.09,64.05L29.09,62.46C28.94,62.4 28.86,62.3 28.83,62.14C28.8,61.97 28.89,61.84 29.01,61.72C30.91,59.97 33.35,59.01 35.87,59.01C38.39,59.01 40.83,59.97 42.73,61.72C42.86,61.83 42.91,62.01 42.88,62.17C42.85,62.31 42.77,62.42 42.65,62.49L42.65,64.04C42.85,64.1 42.99,64.29 42.99,64.5L42.99,92.54C43.24,92.56 43.44,92.77 43.44,93.03L43.44,96.4C43.44,96.67 43.22,96.89 42.95,96.89L42.96,96.9ZM29.09,95.92L42.47,95.92L42.47,93.53C42.22,93.51 42.02,93.3 42.02,93.04L42.02,64.98C41.82,64.92 41.68,64.73 41.68,64.52L41.68,62.27C41.68,62.22 41.68,62.16 41.71,62.11C40.05,60.73 37.99,59.98 35.88,59.98C33.77,59.98 31.71,60.73 30.05,62.11C30.07,62.16 30.08,62.21 30.08,62.26L30.08,64.51C30.08,64.73 29.94,64.91 29.74,64.97L29.74,93.03C29.74,93.3 29.52,93.52 29.25,93.52L29.1,93.52L29.1,95.91L29.09,95.92Z" style="fill:white;fill-rule:nonzero;"/>
            </g>
            <path d="M42.51,93.04L42.51,64.51L42.17,64.51L42.17,62.26L42.2,62.26C42.24,62.17 42.31,62.1 42.41,62.07C40.66,60.46 38.38,59.49 35.88,59.49C33.38,59.49 31.1,60.46 29.35,62.07C29.44,62.1 29.52,62.17 29.56,62.26L29.59,62.26L29.59,64.51L29.25,64.51L29.25,93.04L28.61,93.04L28.61,96.41L42.97,96.41L42.97,93.04L42.51,93.04Z" style="fill:rgb(0,168,129);fill-rule:nonzero;"/>
            <rect x="31.09" y="66.64" width="1.21" height="2.52" style="fill:white;"/>
            <rect x="32.72" y="66.64" width="6.16" height="2.52" style="fill:white;"/>
            <rect x="39.29" y="66.64" width="1.21" height="2.52" style="fill:white;"/>
            <rect x="31.09" y="69.61" width="1.21" height="2.82" style="fill:white;"/>
            <rect x="32.72" y="69.61" width="6.16" height="2.82" style="fill:white;"/>
            <rect x="39.29" y="69.61" width="1.21" height="2.82" style="fill:white;"/>
            <rect x="31.09" y="72.86" width="1.21" height="2.82" style="fill:white;"/>
            <rect x="32.72" y="72.86" width="6.16" height="2.82" style="fill:white;"/>
            <rect x="39.29" y="72.86" width="1.21" height="2.82" style="fill:white;"/>
            <rect x="31.09" y="76.11" width="1.21" height="2.82" style="fill:white;"/>
            <rect x="32.72" y="76.11" width="6.16" height="2.82" style="fill:white;"/>
            <rect x="39.29" y="76.11" width="1.21" height="2.82" style="fill:white;"/>
            <rect x="31.09" y="79.35" width="1.21" height="2.82" style="fill:white;"/>
            <rect x="32.72" y="79.35" width="6.16" height="2.82" style="fill:white;"/>
            <rect x="39.29" y="79.35" width="1.21" height="2.82" style="fill:white;"/>
            <rect x="31.09" y="82.6" width="1.21" height="2.82" style="fill:white;"/>
            <rect x="32.72" y="82.6" width="6.16" height="2.82" style="fill:white;"/>
            <rect x="39.29" y="82.6" width="1.21" height="2.82" style="fill:white;"/>
            <rect x="31.09" y="85.85" width="1.21" height="2.82" style="fill:white;"/>
            <rect x="32.72" y="85.85" width="6.16" height="2.82" style="fill:white;"/>
            <rect x="39.29" y="85.85" width="1.21" height="2.82" style="fill:white;"/>
            <rect x="31.09" y="89.1" width="1.21" height="2.82" style="fill:white;"/>
            <rect x="32.72" y="89.1" width="6.16" height="2.82" style="fill:white;"/>
            <rect x="39.29" y="89.1" width="1.21" height="2.82" style="fill:white;"/>
            <path d="M41.35,78.14C41.35,78.32 41.21,78.46 41.03,78.46C40.85,78.46 40.71,78.32 40.71,78.14L40.71,76.89C40.71,76.71 40.85,76.57 41.03,76.57C41.21,76.57 41.35,76.71 41.35,76.89L41.35,78.14Z" style="fill:white;fill-rule:nonzero;"/>
            <path d="M36.5,61.05C36.5,61.39 36.22,61.67 35.88,61.67C35.54,61.67 35.26,61.39 35.26,61.05C35.26,60.71 35.54,60.43 35.88,60.43C36.22,60.43 36.5,60.71 36.5,61.05Z" style="fill:white;fill-rule:nonzero;"/>
            <rect x="31.2" y="62.1" width="9.38" height="1.47" style="fill:white;"/>
        </g>
        <g>
            <g>
                <path d="M19.92,20.68L21.96,20.93L20.66,21.91L22.79,22.45L22.77,22.47L22.79,22.49C24.19,22.49 25.58,23.55 24.98,26.33L26.06,28.04L26.88,26.54L28.36,27.58L28.75,25.7L30.75,26.59L30.82,24.74L30.84,24.72L27.47,21.76C28.1,19.79 26.89,18.77 26.13,18.38C24.92,17.75 22.26,19.27 22.26,19.27L19.91,20.67L19.92,20.68ZM23.85,20.29C23.85,19.78 24.25,19.38 24.75,19.38C25.25,19.38 25.66,19.78 25.66,20.29C25.66,20.8 25.26,21.19 24.75,21.19C24.24,21.19 23.85,20.79 23.85,20.29Z" style="fill:white;fill-rule:nonzero;"/>
                <path d="M22.76,22.47C22.46,22.78 19.76,25.73 20.7,27.16C21.82,28.86 23.87,26.85 24.69,27.37C24.82,26.99 24.91,26.64 24.98,26.32C25.58,23.54 24.19,22.48 22.79,22.48L22.77,22.46L22.76,22.47Z" style="fill:rgb(0,168,129);fill-rule:nonzero;"/>
                <path d="M24.21,14.26C23.08,14.53 22.27,19.28 22.27,19.28C22.27,19.28 24.94,17.75 26.14,18.39C26.89,18.78 28.11,19.8 27.48,21.77C27.48,21.77 31.91,18.37 31.38,17.15C31.12,16.55 28.68,16.9 28.68,16.9C28.68,16.9 28.72,14.57 28.2,14.3C27.54,13.95 25.65,16.03 25.65,16.03C25.65,16.03 24.95,14.09 24.21,14.27L24.21,14.26Z" style="fill:rgb(0,168,129);fill-rule:nonzero;"/>
                <path d="M36.01,28.24L34.83,28.24L30.84,24.72L30.82,24.74L30.75,26.59L28.75,25.7L28.36,27.58L26.88,26.54L26.06,28.04L24.98,26.33C24.91,26.65 24.82,27 24.69,27.38C21.09,36.99 29.01,42.42 33.06,42.72C33.14,42.94 33.22,43.23 33.29,43.56L35.9,43.56L36.12,42.72L36.47,43.56L39.93,42.56L40.01,41.81C40.01,41.81 44.48,38.46 45.69,34.76C45.63,34.19 44.73,26.3 35.99,28.25L36.01,28.24Z" style="fill:rgb(0,168,129);fill-rule:nonzero;"/>
                <path d="M24.75,19.38C24.25,19.38 23.85,19.78 23.85,20.29C23.85,20.8 24.25,21.19 24.75,21.19C25.25,21.19 25.66,20.79 25.66,20.29C25.66,19.79 25.26,19.38 24.75,19.38Z" style="fill:rgb(0,168,129);fill-rule:nonzero;"/>
                <path d="M33.3,43.56C33.82,45.74 34.28,49.83 34.28,49.83L35.9,43.56L33.3,43.56Z" style="fill:white;fill-rule:nonzero;"/>
                <path d="M45.71,34.75C46.5,35.6 47.02,36.87 47.23,38.74C49.17,37.46 49.28,32.47 49.28,32.47L51.47,35.47C51.47,35.47 53.75,18.13 42.02,17.71C33.55,17.41 34.83,28.23 34.83,28.23L36.01,28.23C44.75,26.29 45.65,34.18 45.71,34.75Z" style="fill:white;fill-rule:nonzero;"/>
                <path d="M36.48,43.56L39.11,49.83L39.94,42.56L36.48,43.56Z" style="fill:white;fill-rule:nonzero;"/>
            </g>
            <g>
                <path d="M39.94,42.56L39.11,49.83L36.48,43.56L36.13,42.72L35.91,43.56L34.29,49.83C34.29,49.83 33.82,45.74 33.31,43.56C33.24,43.23 33.16,42.94 33.08,42.72C29.03,42.42 21.11,36.99 24.71,27.38C23.9,26.86 21.84,28.86 20.72,27.17C19.78,25.73 22.48,22.79 22.78,22.48L22.8,22.46L20.67,21.92L21.97,20.94L19.93,20.69L22.28,19.29C22.28,19.29 23.09,14.54 24.22,14.27C24.96,14.1 25.66,16.03 25.66,16.03C25.66,16.03 27.55,13.95 28.21,14.3C28.73,14.57 28.69,16.9 28.69,16.9C28.69,16.9 31.13,16.56 31.39,17.15C31.92,18.37 27.49,21.77 27.49,21.77L30.86,24.73L34.85,28.24C34.85,28.24 33.57,17.41 42.04,17.72C53.77,18.15 51.49,35.48 51.49,35.48L49.3,32.48C49.3,32.48 49.19,37.47 47.25,38.75C47.04,36.88 46.52,35.61 45.73,34.76" style="fill:none;fill-rule:nonzero;stroke:white;stroke-width:0.41px;"/>
                <path d="M45.71,34.75C44.5,38.45 40.03,41.8 40.03,41.8L39.95,42.55" style="fill:none;fill-rule:nonzero;stroke:white;stroke-width:0.41px;"/>
                <path d="M45.71,34.78L45.71,34.75C45.65,34.18 44.75,26.29 36.01,28.24C35.69,28.31 35.35,28.4 35.02,28.49" style="fill:none;fill-rule:nonzero;stroke:white;stroke-width:0.41px;"/>
                <path d="M22.79,22.49C24.19,22.49 25.58,23.55 24.98,26.33C24.91,26.65 24.82,27 24.69,27.38" style="fill:none;fill-rule:nonzero;stroke:white;stroke-width:0.41px;"/>
                <path d="M30.82,24.75L30.75,26.6L28.75,25.71L28.37,27.58L26.89,26.54L26.07,28.04L24.99,26.33" style="fill:none;fill-rule:nonzero;stroke:white;stroke-width:0.41px;"/>
                <path d="M26.6,32.16C26.6,32.16 27.59,37.61 31.78,39.34C34.15,40.32 39.29,40.97 42.18,37.24C42.18,37.24 39.79,38.2 36.92,37.4C39.86,37 42.3,35.44 42.3,35.44C42.3,35.44 38.44,36.3 36.35,35.51C36.35,35.51 40.45,34.76 41.95,33.16C41.95,33.16 36.71,34.4 34.92,32.89" style="fill:none;fill-rule:nonzero;stroke:white;stroke-width:0.41px;"/>
                <path d="M39.95,42.56L39.94,42.56L36.48,43.56" style="fill:none;fill-rule:nonzero;stroke:white;stroke-width:0.41px;"/>
                <path d="M35.9,43.56L33.3,43.56" style="fill:none;fill-rule:nonzero;stroke:white;stroke-width:0.41px;"/>
                <path d="M22.26,19.28C22.26,19.28 24.93,17.75 26.13,18.39C26.88,18.78 28.1,19.8 27.47,21.77" style="fill:none;fill-rule:nonzero;stroke:white;stroke-width:0.41px;stroke-linecap:round;stroke-linejoin:round;stroke-miterlimit:4;"/>
            </g>
        </g>
    </g>
</svg>
