<?xml version="1.0" encoding="UTF-8"?>
<svg id="Layer_2" data-name="Layer 2" xmlns="http://www.w3.org/2000/svg" viewBox="0 0 244.07 100.64">
  <defs>
    <style>
      .cls-1 {
        fill: #fff;
      }
    </style>
  </defs>
  <g id="Layer_1-2" data-name="Layer 1">
    <g>
      <g>
        <path class="cls-1" d="m125.28,37.73h-6.73v-3.46h17.22v3.46h-6.73v17.77h-3.76v-17.77Z"/>
        <path class="cls-1" d="m139.71,34.28h9.46c2.67,0,4.76.79,6.12,2.12,1.12,1.15,1.76,2.73,1.76,4.58v.06c0,3.49-2.09,5.58-5.03,6.43l5.73,8.04h-4.43l-5.22-7.4h-4.67v7.4h-3.73v-21.23Zm9.19,10.52c2.67,0,4.37-1.39,4.37-3.55v-.06c0-2.27-1.64-3.52-4.4-3.52h-5.43v7.13h5.46Z"/>
        <path class="cls-1" d="m161.63,34.28h15.74v3.34h-12.01v5.52h10.64v3.34h-10.64v5.7h12.16v3.34h-15.89v-21.23Z"/>
        <path class="cls-1" d="m181,44.95v-.06c0-5.94,4.55-10.98,10.95-10.98,3.7,0,5.97,1.03,8.16,2.88l-2.37,2.82c-1.64-1.39-3.24-2.27-5.94-2.27-3.91,0-6.88,3.43-6.88,7.49v.06c0,4.37,2.88,7.58,7.22,7.58,2,0,3.82-.64,5.13-1.61v-3.97h-5.43v-3.24h9.04v8.91c-2.09,1.79-5.09,3.31-8.85,3.31-6.64,0-11.01-4.73-11.01-10.92Z"/>
        <path class="cls-1" d="m205.71,34.28h15.74v3.34h-12.01v5.52h10.64v3.34h-10.64v5.7h12.16v3.34h-15.89v-21.23Z"/>
        <path class="cls-1" d="m226.02,34.28h9.46c2.67,0,4.76.79,6.12,2.12,1.12,1.15,1.76,2.73,1.76,4.58v.06c0,3.49-2.09,5.58-5.03,6.43l5.73,8.04h-4.43l-5.22-7.4h-4.67v7.4h-3.73v-21.23Zm9.19,10.52c2.67,0,4.37-1.39,4.37-3.55v-.06c0-2.27-1.64-3.52-4.4-3.52h-5.43v7.13h5.46Z"/>
        <path class="cls-1" d="m125.28,74.12h-6.73v-3.46h17.22v3.46h-6.73v17.77h-3.76v-17.77Z"/>
        <path class="cls-1" d="m139.71,70.66h15.74v3.34h-12.01v5.52h10.64v3.34h-10.64v5.7h12.16v3.33h-15.89v-21.23Z"/>
        <path class="cls-1" d="m167.54,70.51h3.46l9.34,21.38h-3.94l-2.15-5.12h-10.04l-2.18,5.12h-3.82l9.34-21.38Zm5.34,12.95l-3.67-8.49-3.64,8.49h7.31Z"/>
        <path class="cls-1" d="m183.97,70.66h3.97l6.46,10.04,6.46-10.04h3.97v21.23h-3.73v-15.22l-6.7,10.01h-.12l-6.64-9.95v15.16h-3.67v-21.23Z"/>
      </g>
      <g>
        <polygon class="cls-1" points="16.77 25.16 16.77 41.93 25.16 41.93 25.16 33.55 50.32 33.55 50.32 67.09 41.93 67.09 41.93 41.93 33.55 41.93 33.55 67.09 25.16 67.09 25.16 75.48 50.32 75.48 50.32 92.25 41.93 92.25 41.93 100.64 67.09 100.64 67.09 92.25 58.71 92.25 58.71 33.55 83.86 33.55 83.86 41.93 92.25 41.93 92.25 25.16 16.77 25.16"/>
        <polygon class="cls-1" points="33.55 16.77 41.93 16.77 41.93 8.39 67.09 8.39 67.09 16.77 75.48 16.77 75.48 0 0 0 0 16.77 8.39 16.77 8.39 8.39 33.55 8.39 33.55 16.77"/>
      </g>
    </g>
  </g>
</svg>