<svg xmlns="http://www.w3.org/2000/svg" viewBox="0 0 624.17 158.81" style="transform: translate3d(0, 0, 0); -webkit-transform: translate3d(0, 0, 0);">
				<defs>
					<style>
						.cls-1 {
							fill: #201d1e;
						}
					</style>
				</defs>
				<g id="Layer_2" data-name="Layer 2">
					<g id="Layer_1-2" data-name="Layer 1">
						<path class="cls-1" d="M0,134.51v-.88c0-18.69,16.52-25.18,45.54-30.4l28.82-5.31V77.56C74.36,59.46,68,52.77,54,52.77,37.48,52.77,31.87,63.3,31.87,93L2.46,89.27c0-25.77,16.43-38.46,51.74-38.46C87.84,50.81,103,61.43,103,84.94v56.95c0,7.28,4.92,8,11,3.34l.69,1.38c-4.72,8.36-11.71,12-21.15,12-14.75,0-19.48-8.66-17.21-29.21l-2-.4c-6.69,19.48-22.82,29.61-42.69,29.61C11.31,158.61,0,149.56,0,134.51Zm74.36-19.87V100.09l-18.2,3.63c-18.29,3.64-27.24,10.14-27.24,25.48v1.18c0,10.52,5.6,17.61,17,17.61C62,148,74.36,135,74.36,114.64Z"></path>
						<path class="cls-1" d="M130.52,156.35V56H113.7v-3h16.82V47.56c0-20.36,12.49-27.54,59.9-29.21l.5,2.75c-33.74,2.66-39.74,9.74-32.27,32h41.08v3H159.15V156.35Z"></path>
						<path class="cls-1" d="M198.14,133.23V34.48l28.62-12.59V53.07H261v3H226.76v76.33c0,11,5.11,15.54,14.85,15.54a23.57,23.57,0,0,0,18-8.56l1.28,1.38c-8.26,13-19.57,17.9-32.95,17.9C208.17,158.61,198.14,150,198.14,133.23Z"></path>
						<path class="cls-1" d="M378.32,119c-2.46,26.16-23,39.74-55.09,39.74-37.57,0-57.34-17.81-57.34-51.15v-6.1c0-32.55,20.26-50.75,56.26-50.75,35.51,0,55.48,16.23,55.48,42.39a60.91,60.91,0,0,1-.4,7.58H294.42c.09,29.6,12.78,45.83,41.6,45.83,22.13,0,37.57-9,40.23-27.83Zm-83.9-25.08v3.74h54.29V92.41c0-26.95-9-39.73-26.36-39.73C303.86,52.68,294.42,66.25,294.42,93.89Z"></path>
						<path class="cls-1" d="M394.94,156.35V53.07h28.72c0,9.64-.59,18.59-3,42.69l2.06.39c5.71-33.54,16.14-43.18,41.71-46.33l3.34,24c-37.47,3.25-44.26,9.25-44.26,37.08v45.45Z"></path>
						<path class="cls-1" d="M491.22,116.23l33.54-4.45c1.34,29.86,12.82,44.8,33.44,44.8,20.84,0,32-14.94,32-40.9v-.45c0-28.42-15.82-43.57-44.91-43.57-19.95,0-35,7-46.7,21.51l-3.45-.78L500,0H617.6V23.29H502.36l-3.67,65.08c13.93-21.06,34.43-31.2,63.18-31.2,39.34,0,62.3,17.83,62.3,50v.44c0,33.55-22.29,51.16-66.2,51.16C516.29,158.81,494.23,144.88,491.22,116.23Z"></path>
					</g>
				</g>
			</svg>