<svg id="J_LOGO" data-name="J LOGO" xmlns="http://www.w3.org/2000/svg" xmlns:xlink="http://www.w3.org/1999/xlink" width="70.606" height="60" viewBox="0 0 70.606 60">
  <defs>
    <clipPath id="clip-path">
      <path id="Path_48" data-name="Path 48" d="M0-79.768H30.848v-35.963H0Z" transform="translate(0 115.731)" fill="none"/>
    </clipPath>
  </defs>
  <path id="Path_46" data-name="Path 46" d="M10.613,0H70.606L59.993,60H0Z" fill="#fa292a"/>
  <g id="Group_48" data-name="Group 48" transform="translate(20.398 12.18)" clip-path="url(#clip-path)">
    <g id="Group_47" data-name="Group 47" transform="translate(0 0)">
      <g id="Group_46" data-name="Group 46">
        <path id="Path_47" data-name="Path 47" d="M-34.555-51.049q0,4.256-1.29,6.036a4.9,4.9,0,0,1-4.256,1.78,6.614,6.614,0,0,1-3.1-.709,6.476,6.476,0,0,1-2.347-2.128,8.119,8.119,0,0,0,1.083.232,7.3,7.3,0,0,0,1.032.077,4.21,4.21,0,0,0,3.1-1.122A4.1,4.1,0,0,0-39.2-49.94a4.639,4.639,0,0,0-1.457-3.521,5.2,5.2,0,0,0-3.727-1.38,5.289,5.289,0,0,0-4.153,1.805,6.817,6.817,0,0,0-1.6,4.694,9.12,9.12,0,0,0,3.456,7.4,13.9,13.9,0,0,0,9.1,2.837q6.783,0,9.943-3.121t3.16-9.827v-15.3q0-2.012.593-2.541a4.454,4.454,0,0,1,2.683-.529h1.909v-4.643H-40.049v4.643h2.218a4.455,4.455,0,0,1,2.682.529q.593.529.593,2.541Z" transform="translate(50.134 74.064)" fill="#fff"/>
      </g>
    </g>
  </g>
</svg>
