<svg xmlns="http://www.w3.org/2000/svg" width="80" height="16.607" viewBox="0 0 80 16.607">
  <g id="Group_673" data-name="Group 673" transform="translate(-192.187 -250.164)">
    <path id="Path_85" data-name="Path 85" d="M251.666,255.894a1.768,1.768,0,0,1-1.882,1.817h-2.07v-3.633h2.094a1.746,1.746,0,0,1,1.858,1.817m5.645,10.877-3.528-6.359a5.262,5.262,0,0,0,3.011-4.961c0-2.771-1.835-5.287-6.3-5.287h-8.044v16.607h5.269v-5.5h1.106l2.7,5.5Zm-16.079,0v-4.052h-7.786v-2.236h6.163v-4.006h-6.163v-2.283h7.786v-4.029H228.178v16.607Zm-19.408-6.149a2.008,2.008,0,0,1-2.116,2.1h-1.835V254.24h1.718a2.014,2.014,0,0,1,2.234,2.05Zm5.316.117v-4.914c0-4.03-3.246-5.66-7.08-5.66H212.6v16.607h7.5c3.74,0,7.033-1.7,7.033-6.032m-15.91-10.574h-5.269v16.607h5.269Zm-5.988,16.607v-4.052h-7.786V250.164h-5.27v16.607Z" transform="translate(0 0)" fill="#fff"/>
    <rect id="Rectangle_327" data-name="Rectangle 327" width="12.088" height="12.088" transform="translate(260.099 250.243)" fill="#fff"/>
  </g>
</svg>
