<svg
    class="logo"
    xmlns="http://www.w3.org/2000/svg"
    viewBox="0 0 180 26.508">

    <g fill="#02acee">
        <path stroke="rgba(0,0,0,0)" d="M38.849 26.008h0c-.2 0-.4 0-.609-.013a13.208 13.208 0 01-5.381-1.36 12.691 12.691 0 01-3.928-3.067 13.517 13.517 0 01-2.412-4.04 12.38 12.38 0 01-.836-4.28 14.774 14.774 0 01.62-4.315 12.3 12.3 0 012.1-4.1 10.776 10.776 0 013.886-3.075A14.219 14.219 0 0138.24.5h.231a15.084 15.084 0 015.922 1.1 10.785 10.785 0 013.99 2.888 11.818 11.818 0 012.26 4.084 15.377 15.377 0 01.729 4.676 13.081 13.081 0 01-3.767 9.18 12 12 0 01-3.821 2.6 12.516 12.516 0 01-4.935.98zM38.27 5.137h-.031A5.071 5.071 0 0034.533 6.7a8.93 8.93 0 00-2.088 6.546 9.239 9.239 0 001.9 5.719 5.2 5.2 0 003.893 2.006h.091c2.924 0 5.941-2.389 6.09-7.727.079-2.845-.593-5.082-1.943-6.47a5.7 5.7 0 00-4.206-1.637z"></path>

        <path d="M152.75 25.566c4.2-1.166 5.98-6.3 3.715-10.712-.986-1.922-2.066-2.832-5.242-4.418-3.849-1.921-4.618-2.614-4.3-3.877.554-2.207 5.267-1.25 5.267 1.281v.773h4.249V.888h-4.249v1.159c0 .227-.873-.618-1.526-.956a7.365 7.365 0 00-6.088.17 7.215 7.215 0 00-2.479 9.5c.7 1.241 1.678 2.032 4.651 3.759 3.681 2.138 4.668 3.169 4.668 4.876 0 1-.994 1.7-2.4 1.7-1.5 0-3.008-.443-3.008-2.06v-2.312h-4.635v8.884h4.635V24.45c0-.491.146.051.847.426a7.076 7.076 0 005.895.691z"></path>

        <path d="M10.429 20.973h-2.7v-11.2L17 25.608h5.79V5.522h2.7V.887H15.064v4.635h2.7v8.5L10.043.887H0v4.635h2.7v15.451H0v4.635h10.429v-4.635z"></path>

        <path d="M72.618 5.522h2.7V.887H64.506v4.635h1.931l-3.09 8.5-2.7-8.5h1.931V.887H50.987v4.635h2.583l6.769 20.086h5.487z"></path>

        <path d="M90 20.973h-2.7V5.522H90V.887H77.639v4.635h2.9l.21 15.451h-3.11v4.635H90z"></path>

        <path d="M123.605 16.724h-4.635v4.249h-6.566V5.522h3.09V.887h-12.747v4.635h3.09v15.451h-3.09v4.635h20.858z"></path>

        <path d="M138.67 20.973h-2.7V5.522h2.7V.887h-12.361v4.635h2.7v15.451h-2.7v4.635h12.361z"></path>

        <path d="M176.523 20.973h-3.476V5.136h2.7v3.476h4.249V.887h-20.855v7.725h4.635V5.136h2.7v15.837H163v4.635h13.519z"></path>
    </g>
</svg>